# xmcd
#
# Track frame offsets: 
#        150
#        20667
#        40162
#        53465
#
# Disc length: 968 seconds
#
# Revision: 0
# Processed by: cddbd v1.5.2PL0 Copyright (c) Steve Scherf et al.
# Submitted via: ExactAudioCopy v0.95b4
#
DISCID=2703c604
DTITLE=Christopher Cross - 3 Inch CD-Single
DYEAR=1900
DGENRE=Blues
TTITLE0=Ride Like The Wind
TTITLE1=Sailing
TTITLE2=Say You'll Be Mine
TTITLE3=All Right
EXTD=
EXTT0=
EXTT1=
EXTT2=
EXTT3=
PLAYORDER=
